<mxfile host="65bd71144e">
    <diagram id="7EAFwHVdIQT9RCRarYHM" name="Page-1">
        <mxGraphModel dx="556" dy="488" grid="1" gridSize="10" guides="1" tooltips="1" connect="1" arrows="1" fold="1" page="1" pageScale="1" pageWidth="827" pageHeight="1169" math="0" shadow="0">
            <root>
                <mxCell id="0"/>
                <mxCell id="1" parent="0"/>
                <mxCell id="2" value="" style="rounded=0;whiteSpace=wrap;html=1;" vertex="1" parent="1">
                    <mxGeometry x="10" y="10" width="200" height="240" as="geometry"/>
                </mxCell>
                <mxCell id="3" value="Feed" style="rounded=0;whiteSpace=wrap;html=1;" vertex="1" parent="1">
                    <mxGeometry x="10" y="220" width="50" height="30" as="geometry"/>
                </mxCell>
                <mxCell id="4" value="GC / F" style="rounded=0;whiteSpace=wrap;html=1;" vertex="1" parent="1">
                    <mxGeometry x="60" y="220" width="50" height="30" as="geometry"/>
                </mxCell>
                <mxCell id="5" value="Dep" style="rounded=0;whiteSpace=wrap;html=1;" vertex="1" parent="1">
                    <mxGeometry x="110" y="220" width="50" height="30" as="geometry"/>
                </mxCell>
                <mxCell id="6" value="Course" style="rounded=0;whiteSpace=wrap;html=1;" vertex="1" parent="1">
                    <mxGeometry x="160" y="220" width="50" height="30" as="geometry"/>
                </mxCell>
                <mxCell id="8" value="" style="rounded=0;whiteSpace=wrap;html=1;" vertex="1" parent="1">
                    <mxGeometry x="260" y="10" width="200" height="240" as="geometry"/>
                </mxCell>
                <mxCell id="9" value="" style="rounded=0;whiteSpace=wrap;html=1;" vertex="1" parent="1">
                    <mxGeometry x="260" y="10" width="100" height="240" as="geometry"/>
                </mxCell>
                <mxCell id="10" value="Profile" style="rounded=0;whiteSpace=wrap;html=1;" vertex="1" parent="1">
                    <mxGeometry x="260" y="10" width="100" height="60" as="geometry"/>
                </mxCell>
                <mxCell id="11" value="" style="rounded=0;whiteSpace=wrap;html=1;" vertex="1" parent="1">
                    <mxGeometry x="10" y="10" width="200" height="20" as="geometry"/>
                </mxCell>
                <mxCell id="12" value="Light" style="rounded=0;whiteSpace=wrap;html=1;align=left;" vertex="1" parent="1">
                    <mxGeometry x="260" y="230" width="100" height="20" as="geometry"/>
                </mxCell>
                <mxCell id="13" value="Settings" style="rounded=0;whiteSpace=wrap;html=1;" vertex="1" parent="1">
                    <mxGeometry x="260" y="170" width="100" height="20" as="geometry"/>
                </mxCell>
                <mxCell id="14" value="Schedule" style="rounded=0;whiteSpace=wrap;html=1;" vertex="1" parent="1">
                    <mxGeometry x="260" y="70" width="100" height="20" as="geometry"/>
                </mxCell>
            </root>
        </mxGraphModel>
    </diagram>
</mxfile>